HIERARCHY
ROOT hip
{
	OFFSET 0.000000 0.000000 0.000000 
	CHANNELS 6 Xposition Yposition Zposition Xrotation Zrotation Yrotation
	JOINT abdomen
	{
		OFFSET 0.000000 3.402643 0.000000 
		CHANNELS 3 Xrotation Zrotation Yrotation
		JOINT chest
		{
			OFFSET 0.000000 8.438565 -0.680529 
			CHANNELS 3 Xrotation Zrotation Yrotation
			JOINT neck
			{
				OFFSET 0.000000 10.207942 -0.272212 
				CHANNELS 3 Xrotation Zrotation Yrotation
				JOINT head
				{
					OFFSET 0.000000 3.130431 0.000000 
					CHANNELS 3 Xrotation Zrotation Yrotation
					End Site
					{
						OFFSET 0.000000 3.130435 0.000000 
					}
				}
			}
			JOINT lCollar
			{
				OFFSET 3.470700 6.669187 -0.816635 
				CHANNELS 3 Yrotation Zrotation Xrotation
				JOINT lShldr
				{
					OFFSET 3.198488 0.000000 0.000000 
					CHANNELS 3 Zrotation Yrotation Xrotation
					JOINT lForeArm
					{
						OFFSET 10.139888 0.000000 0.000000 
						CHANNELS 3 Yrotation Zrotation Xrotation
						JOINT lHand
						{
							OFFSET 8.370511 0.000000 0.000000 
							CHANNELS 3 Zrotation Yrotation Xrotation
							End Site
							{
								OFFSET 4.083176 0.000000 0.000000 
							}
						}
					}
				}
			}
			JOINT rCollar
			{
				OFFSET -3.470700 6.669187 -0.816635 
				CHANNELS 3 Yrotation Zrotation Xrotation
				JOINT rShldr
				{
					OFFSET -3.198488 0.000000 0.000000 
					CHANNELS 3 Zrotation Yrotation Xrotation
					JOINT rForeArm
					{
						OFFSET -10.139888 0.000000 0.000000 
						CHANNELS 3 Yrotation Zrotation Xrotation
						JOINT rHand
						{
							OFFSET -8.370511 0.000000 0.000000 
							CHANNELS 3 Zrotation Yrotation Xrotation
							End Site
							{
								OFFSET -4.083176 0.000000 0.000000 
							}
						}
					}
				}
			}
		}
	}
	JOINT lThigh
	{
		OFFSET 5.308129 -1.633274 1.361059 
		CHANNELS 3 Xrotation Zrotation Yrotation
		JOINT lShin
		{
			OFFSET -2.041588 -20.007561 0.000000 
			CHANNELS 3 Xrotation Zrotation Yrotation
			JOINT lFoot
			{
				OFFSET 0.000000 -19.190928 -1.224953 
				CHANNELS 3 Xrotation Yrotation Zrotation
				End Site
				{
					OFFSET 0.000000 -2.449906 4.627600 
				}
			}
		}
	}
	JOINT rThigh
	{
		OFFSET -5.308129 -1.633274 1.361059 
		CHANNELS 3 Xrotation Zrotation Yrotation
		JOINT rShin
		{
			OFFSET 2.041588 -20.007561 0.000000 
			CHANNELS 3 Xrotation Zrotation Yrotation
			JOINT rFoot
			{
				OFFSET 0.000000 -19.190928 -1.224953 
				CHANNELS 3 Xrotation Yrotation Zrotation
				End Site
				{
					OFFSET 0.000000 -2.449906 4.627600 
				}
			}
		}
	}
}
MOTION
Frames: 18
Frame Time: 0.011111
8.740737 49.880787 -0.313587 8.913030 -2.728943 -97.587250 31.182495 6.717940 10.792928 -23.905121 -7.110979 1.923438 -8.516171 4.444566 -0.696714 -2.624991 -5.763917 0.009252 -4.639579 -2.584670 0.232935 -72.213898 2.660213 -73.512947 -34.952793 2.769702 2.703371 8.524705 12.647240 -113.509163 2.212703 6.201041 0.507338 61.628120 52.054771 46.473289 71.536392 -8.958259 17.860081 -8.534408 -12.637552 30.394390 -29.680279 13.775949 -0.043520 37.048641 -4.884583 -5.741053 -12.035817 -0.596623 -3.216612 36.788666 1.670936 6.382609 -0.105463 5.941064 0.693596 -13.697011 2.637307 3.720900 
7.326979 49.884480 -0.277581 8.035652 -2.588967 -97.213737 30.392668 5.404539 10.015879 -24.260109 -7.285926 1.949206 -8.554337 4.546365 -0.872830 -1.791997 -4.375207 -0.380416 -4.639579 -2.584670 0.232935 -71.536903 2.664222 -77.087120 -34.684319 2.657212 2.622852 8.524705 12.647240 -117.552147 2.212703 6.201041 0.507338 62.915817 49.614834 46.050797 72.026596 -8.880997 18.103676 -8.534408 -12.637552 30.540873 -29.425745 12.516378 -0.185601 38.920277 -4.754181 -5.960527 -10.559300 0.517668 -3.048248 33.111149 1.123747 6.054889 9.558961 5.974091 2.049518 -15.242914 2.363089 3.653068 
5.941227 49.892784 -0.236652 6.901647 -2.596215 -96.825920 29.777090 3.787668 9.147561 -24.515766 -7.239398 1.959547 -8.758007 4.506961 -0.995063 -0.839602 -2.995871 -0.653941 -4.639579 -2.584670 0.232935 -70.865974 1.990735 -81.831787 -34.465839 2.564910 2.554322 8.524705 12.647240 -123.401749 2.212703 6.201041 0.507338 64.045486 46.638477 45.288490 72.607201 -8.778823 18.397655 -8.534408 -12.637552 30.482281 -28.242104 10.849861 0.110935 40.403103 -4.644720 -6.150157 -11.037990 -0.015547 -3.140832 30.314981 0.401386 5.741924 17.301069 5.842893 3.143568 -14.298405 2.090093 3.585401 
4.640718 49.817085 -0.181258 5.781645 -2.624710 -96.427513 29.363148 2.205199 8.261024 -24.731024 -7.009722 1.943050 -8.953288 4.514642 -1.064309 -0.077057 -2.081208 -0.798389 -4.639579 -2.584670 0.232935 -70.355606 0.605975 -87.920746 -34.356522 2.514502 2.517581 8.524705 12.647240 -130.979874 2.212703 6.201041 0.507338 64.852150 43.743755 44.755627 72.689934 -8.763254 18.437777 -8.534408 -12.637552 30.697128 -27.137819 9.081567 -0.042399 41.698006 -4.533685 -6.301023 -12.152260 -0.449325 -3.198464 27.453012 -0.340700 5.519736 24.798098 5.571493 4.161342 -11.856190 1.661364 3.466252 
3.365443 49.958340 -0.101862 4.859640 -2.662077 -96.078033 29.210770 1.021250 7.382814 -24.965485 -6.705653 1.863412 -8.972604 3.930792 -1.191948 0.646294 -0.771326 -1.251143 -4.639579 -2.584670 0.232935 -70.251694 -1.159518 -92.288795 -34.307007 2.492735 2.497517 8.524705 12.647240 -136.722061 2.212703 6.201041 0.507338 65.460762 41.015388 44.652889 72.234299 -8.846247 18.216105 -8.534408 -12.637552 31.126812 -25.645531 7.565342 -0.161326 42.420280 -4.448933 -6.391092 -13.379778 -1.084983 -3.307129 24.058203 -0.966069 4.819374 31.913157 5.200150 5.097246 -6.013485 1.223645 3.341326 
2.129252 50.109436 -0.002770 3.971525 -2.721106 -95.736534 29.185030 0.049531 6.364837 -25.091417 -6.331180 1.715165 -9.387303 3.281413 -1.081367 1.676076 0.427006 -1.208533 -4.639579 -2.584670 0.232935 -70.523911 -3.087236 -82.739189 -34.058758 2.385196 2.426610 8.524705 12.647240 -128.450577 2.212703 6.201041 0.507338 65.808273 38.488850 44.922024 71.367882 -8.980654 17.772635 -8.534408 -12.637552 31.820171 -23.917044 6.149802 -0.029333 42.626331 -4.455628 -6.401452 -14.369038 -1.689653 -3.462862 20.558874 -1.707615 3.929490 38.597260 4.739883 5.917889 1.714605 -0.158713 3.026989 
0.936452 50.292850 0.101247 3.103130 -2.692355 -95.519516 29.041985 -1.005148 5.706184 -25.198235 -6.087965 1.660740 -9.714025 3.452893 -0.986080 2.573173 0.618688 -0.945160 -4.639579 -2.584670 0.232935 -70.553146 -4.982787 -72.816650 -33.722050 2.239720 2.314224 8.524705 12.647240 -120.052147 2.212703 6.201041 0.507338 66.121040 35.960854 44.855530 70.069588 -9.154296 17.131395 -8.534408 -12.637552 32.552593 -22.011486 4.909541 0.390173 42.231300 -4.485473 -6.368885 -15.238676 -2.249364 -3.602653 16.814003 -2.528079 3.290129 44.739258 4.234168 6.635792 8.762462 -2.600948 2.960752 
-0.222496 50.499035 0.189261 2.204295 -2.656845 -95.554665 28.868717 -2.255583 5.251744 -25.334454 -5.867560 1.688479 -9.525001 4.079653 -1.096288 2.995433 0.127688 -0.995350 -4.639579 -2.584670 0.232935 -70.503860 -6.763247 -62.788555 -33.593464 2.189128 2.277136 8.524705 12.647240 -111.419327 2.212703 6.201041 0.507338 66.564629 33.450100 44.471287 68.331078 -9.324242 16.278168 -8.534408 -12.637552 32.972515 -19.960115 3.837853 1.140584 41.520725 -4.549843 -6.262436 -15.881497 -2.957766 -3.825042 12.975462 -3.455837 3.082417 50.354950 3.742382 7.216414 14.101043 -3.594957 2.924001 
-1.354978 50.699684 0.271118 1.276177 -2.798522 -95.641830 29.018513 -3.413121 4.469910 -25.470129 -5.517493 1.617054 -9.425861 4.553857 -0.987825 3.199200 -0.206416 -0.644351 -4.639579 -2.584670 0.232935 -70.824905 -8.430994 -53.311966 -34.039017 2.378037 2.419768 8.524705 12.647240 -102.561905 2.212703 6.201041 0.507338 66.922302 31.297064 44.376770 66.081688 -9.442015 15.203494 -8.534408 -12.637552 33.226421 -17.588505 2.764261 2.070903 40.541706 -4.634416 -6.158575 -16.238884 -3.728878 -4.044299 9.306823 -4.481875 2.971133 55.444790 3.214785 7.727022 16.181833 -3.057559 2.682502 
-2.448071 50.882477 0.353901 0.501883 -3.012169 -95.698013 29.439201 -4.189582 3.392089 -25.634953 -5.069266 1.421231 -9.022641 4.264980 -0.764442 3.069085 0.307531 -0.330505 -4.639579 -2.584670 0.232935 -71.383942 -9.934715 -44.312908 -35.261063 2.895024 2.798908 8.524705 12.647240 -93.753311 2.212703 6.201041 0.507338 67.084763 29.603292 44.645653 63.291763 -9.450281 13.902296 -8.534408 -12.637552 33.138531 -15.173494 1.835710 2.897538 39.375801 -4.715095 -6.016676 -16.476669 -4.398291 -4.273149 5.729136 -5.356635 2.908082 59.975010 2.717218 8.140117 13.485435 -1.081174 2.428982 
-3.509159 51.036041 0.434221 -0.280807 -3.236470 -95.641708 29.950602 -4.776243 2.068465 -25.799660 -4.560548 1.138541 -9.097234 4.283278 -0.339203 3.229134 0.155707 0.514329 -4.639579 -2.584670 0.232935 -71.896935 -11.287286 -27.840698 -37.398464 3.761896 3.505425 8.524705 12.647240 -77.952522 2.212703 6.201041 0.507338 67.062401 28.134430 44.777008 60.093307 -9.283295 12.447052 -8.534408 -12.637552 32.103374 -12.804567 0.877842 3.641669 38.178326 -4.802860 -5.872655 -16.700333 -5.232567 -4.552066 2.185975 -6.175805 2.875895 63.892410 2.266180 8.449439 10.898124 0.768801 2.337353 
-4.555781 51.158829 0.511463 -1.180264 -3.551316 -95.368118 30.502518 -5.465643 0.746696 -25.944855 -4.052972 0.862120 -8.845100 4.167867 0.007778 3.156610 0.227650 1.151194 -4.639579 -2.584670 0.232935 -72.036217 -12.654131 -15.923437 -40.117332 4.782924 4.428619 8.524705 12.647240 -67.552132 2.212703 6.201041 0.507338 67.044395 26.558264 43.939049 56.788055 -8.939032 11.003376 -8.534408 -12.637552 29.818214 -10.359660 -0.243729 4.210301 37.057003 -4.898136 -5.746129 -16.871359 -6.332601 -4.913082 -1.249154 -7.105488 2.791107 67.053574 1.886072 8.678704 8.595837 2.048818 2.402835 
-5.576863 51.244072 0.586245 -1.992609 -3.807066 -94.973709 31.009632 -6.037580 -0.411766 -26.060822 -3.553466 0.621055 -8.508670 4.406594 0.307135 2.749057 -0.208474 1.775527 -4.639579 -2.584670 0.232935 -71.923729 -14.183889 -7.425783 -43.207928 5.829336 5.538167 8.524705 12.647240 -61.204479 2.212703 6.201041 0.507338 66.982635 24.862415 41.970375 53.668732 -8.455483 9.667566 -8.534408 -12.637552 26.634623 -8.140383 -1.317803 4.399212 36.114742 -4.966247 -5.626216 -16.970760 -7.170783 -5.202910 -4.685462 -7.917194 2.687197 69.480583 1.582740 8.845722 6.723625 3.109851 2.527749 
-6.576403 51.310547 0.666258 -2.245914 -3.817377 -94.441757 31.312979 -5.872169 -1.226472 -26.059862 -3.153867 0.370470 -8.073733 4.122490 0.297957 2.457776 -0.226661 1.645416 -4.639579 -2.584670 0.232935 -71.755608 -15.953830 -1.095052 -46.609634 6.842049 6.815005 8.524705 12.647240 -57.425186 2.212703 6.201041 0.507338 66.821709 23.298252 38.966511 50.634613 -7.851326 8.417098 -8.534408 -12.637552 22.796734 -6.438676 -1.825110 4.267059 35.398823 -5.024957 -5.541296 -16.993431 -7.899474 -5.471329 -8.024671 -8.044459 2.576675 71.058640 1.377903 8.947780 3.850789 3.596682 2.815370 
-7.575018 51.365631 0.745346 -2.094379 -3.651298 -93.688889 31.407200 -5.129587 -1.822029 -25.873535 -2.881149 0.121608 -8.127364 3.843723 0.135402 2.715044 -0.325783 1.250820 -4.639579 -2.584670 0.232935 -71.378860 -18.018385 3.810235 -49.922798 7.682715 8.122269 8.524705 12.647240 -55.833385 2.212703 6.201041 0.507338 66.637535 21.908989 34.628769 47.584377 -7.117836 7.208009 -8.534408 -12.637552 18.177591 -5.142323 -1.863964 4.058027 34.972752 -5.044211 -5.490315 -17.035126 -8.922773 -5.818534 -11.180713 -7.743527 2.164009 71.779572 1.290188 8.987358 1.273005 3.252078 3.063885 
-8.577020 51.390553 0.817665 -2.062634 -3.440038 -92.858109 31.404072 -4.540431 -2.384742 -25.667761 -2.586558 -0.118209 -8.105593 3.777553 0.018164 2.813633 -0.776944 0.979163 -4.639579 -2.584670 0.232935 -70.810043 -20.202623 7.971012 -53.035091 8.331798 9.394534 8.524705 12.647240 -55.784557 2.212703 6.201041 0.507338 66.421196 20.537619 29.000477 44.674522 -6.297993 6.094188 -8.534408 -12.637552 12.884624 -4.040207 -1.951929 3.941429 34.773499 -5.064034 -5.458639 -17.065708 -10.030555 -6.224839 -14.178364 -7.645685 1.642730 71.671883 1.290259 8.989304 -2.750044 2.632743 3.337048 
-9.579636 51.394562 0.880444 -1.856943 -3.207631 -92.088722 31.371567 -3.831995 -2.719602 -25.550158 -2.325951 -0.300668 -8.037934 3.943634 -0.058943 2.959664 -1.545661 0.849845 -4.639579 -2.584670 0.232935 -70.111961 -22.365349 11.700858 -56.012074 8.822575 10.649422 8.524705 12.647240 -56.634167 2.212703 6.201041 0.507338 66.177574 19.106153 22.013248 42.056263 -5.461102 5.119900 -8.534408 -12.637552 6.839702 -3.031580 -1.814494 3.986706 34.615917 -5.058227 -5.452773 -17.006210 -11.055964 -6.597107 -16.879980 -7.302691 1.216227 70.698280 1.426599 8.926015 -6.482191 1.885221 3.422167 
-10.586868 51.386562 0.947839 -1.672132 -3.005789 -91.201439 31.383955 -3.067259 -3.145736 -25.364248 -2.095447 -0.511540 -8.135433 3.904546 -0.061467 3.213381 -1.850798 0.832184 -4.639579 -2.584670 0.232935 -69.334846 -24.746946 14.890825 -58.825108 9.164944 11.875091 8.524705 12.647240 -57.893932 2.212703 6.201041 0.507338 65.863045 17.856787 13.566862 39.764477 -4.668136 4.313215 -8.534408 -12.637552 -0.455219 -1.923103 -1.659118 4.007176 34.375210 -5.092810 -5.422520 -16.817612 -12.137300 -6.938736 -19.225250 -7.088800 0.665143 68.847374 1.679648 8.805129 -9.901798 1.196740 3.372932 
